# xmcd CD database file
#
# Track frame offsets:
#	187
#	16480
#	31890
#	46885
#	65780
#	82832
#	96762
#	110992
#	123242
#	136175
#
# Disc length: 2000 seconds
#
# Revision: 0
# Processed by: cddbd v1.5PL3 Copyright (c) Steve Scherf et al.
# Submitted via: CDex 1.51
#
DISCID=8007ce0a
DTITLE=スリー・ドッグ・ナイト - ベスト・オブ・ベスト
DYEAR=1994
DGENRE=Rock
TTITLE0=喜びの世界
TTITLE1=オールド・ファッションド・ラヴ・ソング
TTITLE2=ママ・トールド・ミー
TTITLE3=トライ・ア・リトル・テンダネス
TTITLE4=ブラック・アンド・ホワイト
TTITLE5=ライアー
TTITLE6=アウト・イン・ザ・カントリー
TTITLE7=イーライズ・カミング
TTITLE8=ワン・マン・バンド
TTITLE9=ワン
EXTD=YEAR: 1994
EXTT0=
EXTT1=
EXTT2=
EXTT3=
EXTT4=
EXTT5=
EXTT6=
EXTT7=
EXTT8=
EXTT9=
PLAYORDER=
